<svg width="24" height="24" viewBox="0 0 24 24" fill="none" xmlns="http://www.w3.org/2000/svg">
  <path d="M19.5 21H4.5C3.67 21 3 20.33 3 19.5V4.5C3 3.67 3.67 3 4.5 3H19.5C20.33 3 21 3.67 21 4.5V19.5C21 20.33 20.33 21 19.5 21ZM4.5 4.5V19.5H19.5V4.5H4.5Z" fill="currentColor"/>
  <path d="M3.74994 17.2498C3.55994 17.2498 3.36994 17.1798 3.21994 17.0298C2.92994 16.7398 2.92994 16.2598 3.21994 15.9698L6.43994 12.7498C6.99994 12.1898 7.99994 12.1898 8.55994 12.7498L10.4999 14.6898L14.6899 10.4998C15.2599 9.92977 16.2399 9.92977 16.8099 10.4998L20.7799 14.4698C21.0699 14.7598 21.0699 15.2398 20.7799 15.5298C20.4899 15.8198 20.0099 15.8198 19.7199 15.5298L15.7499 11.5598L11.5599 15.7498C10.9999 16.3098 9.99994 16.3098 9.43994 15.7498L7.49994 13.8098L4.27994 17.0298C4.12994 17.1798 3.93994 17.2498 3.74994 17.2498Z" fill="currentColor"/>
  <path d="M9.37994 9.55994C9.89994 9.55994 10.3199 9.13994 10.3199 8.61994C10.3199 8.09994 9.88994 7.68994 9.37994 7.68994C8.86994 7.68994 8.43994 8.10994 8.43994 8.61994C8.43994 9.12994 8.85994 9.55994 9.37994 9.55994Z" fill="currentColor"/>
</svg>
